<?xml version="1.0" encoding="UTF-8"?>
<svg width="375px" height="812px" viewBox="0 0 375 812" version="1.1" xmlns="http://www.w3.org/2000/svg" xmlns:xlink="http://www.w3.org/1999/xlink">
    <title>Group 13</title>
    <defs>
        <rect id="path-1" x="0" y="0" width="375" height="812"></rect>
    </defs>
    <g id="Flujo-UI" stroke="none" stroke-width="1" fill="none" fill-rule="evenodd">
        <g id="Group-13">
            <mask id="mask-2" fill="white">
                <use xlink:href="#path-1"></use>
            </mask>
            <g id="Mask"></g>
            <g mask="url(#mask-2)" fill="#ECF8F8">
                <g transform="translate(-295.000000, -100.000000)">
                    <path d="M295,0 C439.698604,0 557,117.301396 557,262 C557,406.698604 439.698604,524 295,524 C150.301396,524 33,406.698604 33,262 C33,117.301396 150.301396,0 295,0 Z M295.5,119.5 C217.075566,119.5 153.5,183.075566 153.5,261.5 C153.5,339.924434 217.075566,403.5 295.5,403.5 C373.924434,403.5 437.5,339.924434 437.5,261.5 C437.5,183.075566 373.924434,119.5 295.5,119.5 Z" id="Combined-Shape"></path>
                    <path d="M746,317 C890.698604,317 1008,434.301396 1008,579 C1008,723.698604 890.698604,841 746,841 C601.301396,841 484,723.698604 484,579 C484,434.301396 601.301396,317 746,317 Z M746.5,436.5 C668.075566,436.5 604.5,500.075566 604.5,578.5 C604.5,656.924434 668.075566,720.5 746.5,720.5 C824.924434,720.5 888.5,656.924434 888.5,578.5 C888.5,500.075566 824.924434,436.5 746.5,436.5 Z" id="Combined-Shape-Copy"></path>
                    <path d="M262,616 C406.698604,616 524,733.301396 524,878 C524,1022.6986 406.698604,1140 262,1140 C117.301396,1140 0,1022.6986 0,878 C0,733.301396 117.301396,616 262,616 Z M262.5,735.5 C184.075566,735.5 120.5,799.075566 120.5,877.5 C120.5,955.924434 184.075566,1019.5 262.5,1019.5 C340.924434,1019.5 404.5,955.924434 404.5,877.5 C404.5,799.075566 340.924434,735.5 262.5,735.5 Z" id="Combined-Shape-Copy-2"></path>
                </g>
            </g>
        </g>
    </g>
</svg>